<svg width="16" height="16" viewBox="0 0 16 16" fill="none" xmlns="http://www.w3.org/2000/svg">
<path d="M14.265 4.765L6.26502 12.765C6.1947 12.8352 6.09939 12.8747 6.00002 12.8747C5.90064 12.8747 5.80533 12.8352 5.73502 12.765L2.23501 9.265C2.16877 9.19391 2.13271 9.09989 2.13443 9.00274C2.13614 8.90559 2.1755 8.8129 2.2442 8.74419C2.31291 8.67548 2.4056 8.63613 2.50275 8.63441C2.5999 8.6327 2.69393 8.66876 2.76501 8.735L6.00002 11.9694L13.735 4.235C13.8061 4.16876 13.9001 4.1327 13.9973 4.13441C14.0944 4.13613 14.1871 4.17548 14.2558 4.24419C14.3245 4.3129 14.3639 4.40559 14.3656 4.50274C14.3673 4.59989 14.3313 4.69391 14.265 4.765Z" fill="white"/>
</svg>
